<mxfile host="app.diagrams.net" modified="2020-12-22T08:31:19.084Z" agent="5.0 (Windows NT 10.0; Win64; x64) AppleWebKit/537.36 (KHTML, like Gecko) Chrome/87.0.4280.88 Safari/537.36" etag="dPcn55KdtZlbKjf9OrBu" version="13.8.7" type="github">
  <diagram id="z-Ub6a5VLivZjyv9ZTrf" name="Page-1">
    <mxGraphModel dx="868" dy="425" grid="1" gridSize="10" guides="1" tooltips="1" connect="1" arrows="1" fold="1" page="1" pageScale="1" pageWidth="850" pageHeight="1100" math="0" shadow="0">
      <root>
        <mxCell id="0" />
        <mxCell id="1" parent="0" />
        <mxCell id="WHfJruhGqc3tV9S7Ovxq-4" style="edgeStyle=orthogonalEdgeStyle;rounded=0;orthogonalLoop=1;jettySize=auto;html=1;" edge="1" parent="1" source="WHfJruhGqc3tV9S7Ovxq-1" target="WHfJruhGqc3tV9S7Ovxq-2">
          <mxGeometry relative="1" as="geometry" />
        </mxCell>
        <mxCell id="WHfJruhGqc3tV9S7Ovxq-1" value="ffff" style="ellipse;whiteSpace=wrap;html=1;" vertex="1" parent="1">
          <mxGeometry x="80" y="10" width="120" height="80" as="geometry" />
        </mxCell>
        <mxCell id="WHfJruhGqc3tV9S7Ovxq-6" style="edgeStyle=orthogonalEdgeStyle;rounded=0;orthogonalLoop=1;jettySize=auto;html=1;" edge="1" parent="1" source="WHfJruhGqc3tV9S7Ovxq-2" target="WHfJruhGqc3tV9S7Ovxq-5">
          <mxGeometry relative="1" as="geometry" />
        </mxCell>
        <mxCell id="WHfJruhGqc3tV9S7Ovxq-2" value="" style="shape=card;whiteSpace=wrap;html=1;fillColor=#dae8fc;strokeColor=#6c8ebf;" vertex="1" parent="1">
          <mxGeometry x="100" y="130" width="80" height="60" as="geometry" />
        </mxCell>
        <mxCell id="WHfJruhGqc3tV9S7Ovxq-5" value="ffffff" style="shape=document;whiteSpace=wrap;html=1;boundedLbl=1;fillColor=#fff2cc;strokeColor=#d6b656;" vertex="1" parent="1">
          <mxGeometry x="80" y="220" width="120" height="80" as="geometry" />
        </mxCell>
      </root>
    </mxGraphModel>
  </diagram>
</mxfile>
